<svg xmlns="http://www.w3.org/2000/svg" viewBox="0 0 180 180">
  <defs>
    <linearGradient id="bg" x1="10%" y1="8%" x2="88%" y2="92%">
      <stop offset="0%" stop-color="#f8f1ea"/>
      <stop offset="48%" stop-color="#eef1f5"/>
      <stop offset="100%" stop-color="#f3ecf6"/>
    </linearGradient>
    <radialGradient id="mistA" cx="34%" cy="28%" r="42%">
      <stop offset="0%" stop-color="#ffffff" stop-opacity=".92"/>
      <stop offset="100%" stop-color="#ffffff" stop-opacity="0"/>
    </radialGradient>
    <radialGradient id="mistB" cx="68%" cy="68%" r="52%">
      <stop offset="0%" stop-color="#d7c8d6" stop-opacity=".7"/>
      <stop offset="100%" stop-color="#d7c8d6" stop-opacity="0"/>
    </radialGradient>
    <radialGradient id="glow" cx="50%" cy="50%" r="52%">
      <stop offset="0%" stop-color="#c7d4e2" stop-opacity=".9"/>
      <stop offset="55%" stop-color="#d9c4bc" stop-opacity=".45"/>
      <stop offset="100%" stop-color="#d9c4bc" stop-opacity="0"/>
    </radialGradient>
    <filter id="blur" x="-20%" y="-20%" width="140%" height="140%">
      <feGaussianBlur stdDeviation="4.5"/>
    </filter>
  </defs>
  <rect width="180" height="180" rx="52" fill="url(#bg)"/>
  <circle cx="59" cy="46" r="42" fill="url(#mistA)"/>
  <circle cx="128" cy="130" r="52" fill="url(#mistB)"/>
  <circle cx="90" cy="96" r="43" fill="url(#glow)" filter="url(#blur)"/>
  <path d="M91 45C119 49 142 68 146 94C150 126 132 151 104 158C78 164 50 152 38 127C27 105 35 80 54 69C73 59 95 65 105 81C114 95 112 113 100 123C90 132 76 133 67 126C58 119 56 108 61 98" fill="none" stroke="#706b69" stroke-linecap="round" stroke-linejoin="round" stroke-width="6.5"/>
</svg>
