<svg xmlns="http://www.w3.org/2000/svg" viewBox="0 0 512 512">
  <defs>
    <linearGradient id="bg" x1="12%" y1="8%" x2="88%" y2="92%">
      <stop offset="0%" stop-color="#f7efe7"/>
      <stop offset="46%" stop-color="#eef1f5"/>
      <stop offset="100%" stop-color="#f2ebf5"/>
    </linearGradient>
    <radialGradient id="mistA" cx="34%" cy="30%" r="46%">
      <stop offset="0%" stop-color="#ffffff" stop-opacity=".95"/>
      <stop offset="100%" stop-color="#ffffff" stop-opacity="0"/>
    </radialGradient>
    <radialGradient id="mistB" cx="70%" cy="74%" r="54%">
      <stop offset="0%" stop-color="#cfbfd2" stop-opacity=".7"/>
      <stop offset="100%" stop-color="#cfbfd2" stop-opacity="0"/>
    </radialGradient>
    <radialGradient id="glow" cx="50%" cy="52%" r="56%">
      <stop offset="0%" stop-color="#c3d3e3" stop-opacity=".96"/>
      <stop offset="60%" stop-color="#d7c2b9" stop-opacity=".42"/>
      <stop offset="100%" stop-color="#d7c2b9" stop-opacity="0"/>
    </radialGradient>
    <filter id="blur" x="-20%" y="-20%" width="140%" height="140%">
      <feGaussianBlur stdDeviation="16"/>
    </filter>
  </defs>
  <rect width="512" height="512" rx="120" fill="url(#bg)"/>
  <circle cx="166" cy="138" r="126" fill="url(#mistA)"/>
  <circle cx="364" cy="370" r="162" fill="url(#mistB)"/>
  <circle cx="256" cy="272" r="138" fill="url(#glow)" filter="url(#blur)"/>
  <path d="M259 126C336 137 402 192 414 267C426 346 383 418 311 444C231 473 146 445 104 373C71 316 81 247 129 205C180 159 255 158 304 201C343 235 354 293 329 336C305 377 256 402 215 385C181 371 161 335 168 300C174 271 198 244 227 239" fill="none" stroke="#6d6866" stroke-linecap="round" stroke-linejoin="round" stroke-width="18"/>
</svg>
